<?xml version="1.0" encoding="UTF-8" standalone="no"?>
<svg
   xmlns:dc="http://purl.org/dc/elements/1.1/"
   xmlns:cc="http://creativecommons.org/ns#"
   xmlns:rdf="http://www.w3.org/1999/02/22-rdf-syntax-ns#"
   xmlns:svg="http://www.w3.org/2000/svg"
   xmlns="http://www.w3.org/2000/svg"
   xmlns:xlink="http://www.w3.org/1999/xlink"
   xmlns:sodipodi="http://sodipodi.sourceforge.net/DTD/sodipodi-0.dtd"
   xmlns:inkscape="http://www.inkscape.org/namespaces/inkscape"
   inkscape:version="1.0 (6e3e5246a0, 2020-05-07)"
   sodipodi:docname="bands_freev1.svg"
   id="svg660"
   width="457.83978pt"
   viewBox="0 0 457.83978 279.90204"
   version="1.1"
   height="279.90204pt">
  <metadata
     id="metadata664">
    <rdf:RDF>
      <cc:Work
         rdf:about="">
        <dc:format>image/svg+xml</dc:format>
        <dc:type
           rdf:resource="http://purl.org/dc/dcmitype/StillImage" />
        <dc:title></dc:title>
      </cc:Work>
    </rdf:RDF>
  </metadata>
  <sodipodi:namedview
     inkscape:current-layer="axes_1"
     inkscape:window-maximized="1"
     inkscape:window-y="25"
     inkscape:window-x="0"
     inkscape:cy="242.63009"
     inkscape:cx="178.19193"
     inkscape:zoom="1"
     showgrid="false"
     id="namedview662"
     inkscape:window-height="743"
     inkscape:window-width="1366"
     inkscape:pageshadow="2"
     inkscape:pageopacity="0"
     guidetolerance="10"
     gridtolerance="10"
     objecttolerance="10"
     borderopacity="1"
     bordercolor="#666666"
     pagecolor="#ffffff">
    <inkscape:grid
       originy="-8.1281942"
       originx="-14.37534"
       id="grid818"
       type="xygrid" />
  </sodipodi:namedview>
  <defs
     id="defs358">
    <style
       id="style356"
       type="text/css">
*{stroke-linecap:butt;stroke-linejoin:round;}
  </style>
  </defs>
  <g
     transform="translate(98.82177,-5.3096381)"
     id="figure_1">
    <g
       transform="translate(-104.61355,467.69943)"
       id="patch_1">
      <path
         id="path360"
         style="fill:#ffffff"
         d="M 0,288 H 432 V 0 H 0 Z" />
    </g>
    <g
       transform="translate(-105.9381,1.4643954)"
       id="axes_1">
      <g
         transform="translate(-2.2420349,1.2450027)"
         id="patch_2">
        <path
           id="path363"
           style="fill:#ffffff"
           d="M 25.61399,250.77226 H 302.63796 V 3.00024 H 25.61399 Z" />
      </g>
      <g
         transform="translate(-2.2420349,1.2450027)"
         id="matplotlib.axis_1">
        <g
           id="xtick_1">
          <g
             id="line2d_1">
            <defs
               id="defs367">
              <path
                 style="stroke:#000000;stroke-width:0.8"
                 id="mb9153cd6db"
                 d="M 0,0 V 3.5" />
            </defs>
            <g
               id="g371">
              <use
                 height="100%"
                 width="100%"
                 id="use369"
                 y="250.77226"
                 xlink:href="#mb9153cd6db"
                 x="164.12598"
                 style="stroke:#000000;stroke-width:0.8" />
            </g>
          </g>
          <g
             id="text_1">
            <!-- $0$ -->
            <defs
               id="defs375">
              <path
                 id="DejaVuSans-48"
                 d="m 31.78125,66.40625 q -7.609375,0 -11.453125,-7.5 Q 16.5,51.421875 16.5,36.375 q 0,-14.984375 3.828125,-22.484375 3.84375,-7.5 11.453125,-7.5 7.671875,0 11.5,7.5 3.84375,7.5 3.84375,22.484375 0,15.046875 -3.84375,22.53125 -3.828125,7.5 -11.5,7.5 z m 0,7.8125 q 12.265625,0 18.734375,-9.703125 6.46875,-9.6875 6.46875,-28.140625 0,-18.40625 -6.46875,-28.109375 -6.46875,-9.6875 -18.734375,-9.6875 -12.25,0 -18.71875,9.6875 Q 6.59375,17.96875 6.59375,36.375 q 0,18.453125 6.46875,28.140625 6.46875,9.703125 18.71875,9.703125 z" />
            </defs>
            <g
               id="g379"
               transform="matrix(0.12,0,0,-0.12,160.28597,266.89038)">
              <use
                 height="100%"
                 width="100%"
                 y="0"
                 x="0"
                 id="use377"
                 xlink:href="#DejaVuSans-48"
                 transform="translate(0,0.78125)" />
            </g>
          </g>
        </g>
        <g
           id="xtick_2">
          <g
             id="line2d_2">
            <g
               id="g385">
              <use
                 height="100%"
                 width="100%"
                 id="use383"
                 y="250.77226"
                 xlink:href="#mb9153cd6db"
                 x="233.38197"
                 style="stroke:#000000;stroke-width:0.8" />
            </g>
          </g>
          <g
             id="text_2">
            <!-- $2\pi/a$ -->
            <defs
               id="defs392">
              <path
                 id="DejaVuSans-50"
                 d="M 19.1875,8.296875 H 53.609375 V 0 H 7.328125 v 8.296875 q 5.609375,5.8125 15.296875,15.59375 9.703125,9.796875 12.1875,12.640625 4.734375,5.3125 6.609375,9 1.890625,3.6875 1.890625,7.25 0,5.8125 -4.078125,9.46875 -4.078125,3.671875 -10.625,3.671875 -4.640625,0 -9.796875,-1.609375 -5.140625,-1.609375 -11,-4.890625 v 9.96875 Q 13.765625,71.78125 18.9375,73 q 5.1875,1.21875 9.484375,1.21875 11.328125,0 18.0625,-5.671875 6.734375,-5.65625 6.734375,-15.125 0,-4.5 -1.6875,-8.53125 Q 49.859375,40.875 45.40625,35.40625 44.1875,33.984375 37.640625,27.21875 31.109375,20.453125 19.1875,8.296875 Z" />
              <path
                 id="DejaVuSans-Oblique-960"
                 d="M 9.125,54.6875 H 61.53125 L 59.765625,45.703125 H 52.875 l -6.53125,-33.59375 q -0.6875,-3.515625 0.234375,-5.078125 0.890625,-1.515625 3.5625,-1.515625 0.734375,0 1.8125,0.15625 1.125,0.09375 1.46875,0.140625 l -1.265625,-6.5 q -1.8125,-0.625 -3.671875,-0.921875 -1.90625,-0.296875 -3.703125,-0.296875 -5.859375,0 -7.46875,3.171875 Q 35.6875,4.5 37.359375,13.09375 l 6.34375,32.609375 H 23.53125 L 14.65625,0 h -9.1875 l 8.890625,45.703125 H 7.375 Z" />
              <path
                 id="DejaVuSans-47"
                 d="M 25.390625,72.90625 H 33.6875 L 8.296875,-9.28125 H 0 Z" />
              <path
                 id="DejaVuSans-Oblique-97"
                 d="M 53.71875,31.203125 47.609375,0 H 38.625 l 1.65625,8.296875 Q 36.328125,3.421875 31.265625,1 26.21875,-1.421875 20.015625,-1.421875 13.03125,-1.421875 8.5625,2.84375 4.109375,7.125 4.109375,13.8125 q 0,9.578125 7.640625,15.140625 7.640625,5.5625 21.0625,5.5625 h 12.5 l 0.484375,2.40625 q 0.109375,0.390625 0.15625,0.84375 Q 46,38.234375 46,39.203125 q 0,4.359375 -3.546875,6.765625 -3.53125,2.421875 -9.9375,2.421875 -4.390625,0 -9.015625,-1.125 -4.609375,-1.125 -9.484375,-3.375 l 1.5625,8.3125 q 5.078125,1.90625 9.9375,2.84375 Q 30.375,56 34.90625,56 q 9.671875,0 14.71875,-4.203125 5.0625,-4.1875 5.0625,-12.203125 0,-1.609375 -0.25,-3.78125 -0.234375,-2.171875 -0.71875,-4.609375 z M 44,27.484375 h -8.984375 q -11.046875,0 -16.34375,-2.953125 Q 13.375,21.578125 13.375,15.375 q 0,-4.296875 2.703125,-6.734375 2.71875,-2.4375 7.5,-2.4375 7.328125,0 12.796875,5.25 5.46875,5.25 7.234375,14.03125 z" />
            </defs>
            <g
               id="g402"
               transform="matrix(0.12,0,0,-0.12,220.24197,266.89038)">
              <use
                 height="100%"
                 width="100%"
                 y="0"
                 x="0"
                 id="use394"
                 xlink:href="#DejaVuSans-50"
                 transform="translate(0,0.78125)" />
              <use
                 height="100%"
                 width="100%"
                 y="0"
                 x="0"
                 id="use396"
                 xlink:href="#DejaVuSans-Oblique-960"
                 transform="translate(63.623047,0.78125)" />
              <use
                 height="100%"
                 width="100%"
                 y="0"
                 x="0"
                 id="use398"
                 xlink:href="#DejaVuSans-47"
                 transform="translate(123.82813,0.78125)" />
              <use
                 height="100%"
                 width="100%"
                 y="0"
                 x="0"
                 id="use400"
                 xlink:href="#DejaVuSans-Oblique-97"
                 transform="translate(157.51953,0.78125)" />
            </g>
          </g>
        </g>
        <g
           id="xtick_3">
          <g
             id="line2d_3">
            <g
               id="g408">
              <use
                 height="100%"
                 width="100%"
                 id="use406"
                 y="250.77226"
                 xlink:href="#mb9153cd6db"
                 x="94.86998"
                 style="stroke:#000000;stroke-width:0.8" />
            </g>
          </g>
          <g
             id="text_3">
            <!-- $-2\pi/a$ -->
            <defs
               id="defs412">
              <path
                 id="DejaVuSans-8722"
                 d="M 10.59375,35.5 H 73.1875 V 27.203125 H 10.59375 Z" />
            </defs>
            <g
               id="g424"
               transform="matrix(0.12,0,0,-0.12,76.689982,266.89038)">
              <use
                 height="100%"
                 width="100%"
                 y="0"
                 x="0"
                 id="use414"
                 xlink:href="#DejaVuSans-8722"
                 transform="translate(0,0.78125)" />
              <use
                 height="100%"
                 width="100%"
                 y="0"
                 x="0"
                 id="use416"
                 xlink:href="#DejaVuSans-50"
                 transform="translate(83.789062,0.78125)" />
              <use
                 height="100%"
                 width="100%"
                 y="0"
                 x="0"
                 id="use418"
                 xlink:href="#DejaVuSans-Oblique-960"
                 transform="translate(147.41211,0.78125)" />
              <use
                 height="100%"
                 width="100%"
                 y="0"
                 x="0"
                 id="use420"
                 xlink:href="#DejaVuSans-47"
                 transform="translate(207.61719,0.78125)" />
              <use
                 height="100%"
                 width="100%"
                 y="0"
                 x="0"
                 id="use422"
                 xlink:href="#DejaVuSans-Oblique-97"
                 transform="translate(241.30859,0.78125)" />
            </g>
          </g>
        </g>
        <g
           id="text_4">
          <!-- $k$ -->
          <defs
             id="defs429">
            <path
               id="DejaVuSans-Oblique-107"
               d="m 18.3125,75.984375 h 8.984375 l -8.59375,-44.296875 30.8125,23 H 61.1875 L 26.8125,28.515625 51.90625,0 H 41.015625 L 17.671875,26.703125 12.5,0 H 3.515625 Z" />
          </defs>
          <g
             id="g433"
             transform="matrix(0.12,0,0,-0.12,160.64597,282.50414)">
            <use
               height="100%"
               width="100%"
               y="0"
               x="0"
               id="use431"
               xlink:href="#DejaVuSans-Oblique-107"
               transform="translate(0,0.015625)" />
          </g>
        </g>
      </g>
      <g
         transform="translate(-2.2420349,1.2450027)"
         id="ytick_1">
        <g
           id="line2d_4">
          <defs
             id="defs438">
            <path
               d="M 0,0 H -3.5"
               id="m84b546f82f"
               style="stroke:#000000;stroke-width:0.8" />
          </defs>
          <g
             id="g442">
            <use
               style="stroke:#000000;stroke-width:0.8"
               x="25.613991"
               xlink:href="#m84b546f82f"
               y="250.77226"
               id="use440"
               width="100%"
               height="100%" />
          </g>
        </g>
      </g>
      <g
         transform="translate(-2.2420349,1.2450027)"
         id="ytick_2">
        <g
           id="line2d_5">
          <g
             id="g448">
            <use
               style="stroke:#000000;stroke-width:0.8"
               x="25.613991"
               xlink:href="#m84b546f82f"
               y="201.21785"
               id="use446"
               width="100%"
               height="100%" />
          </g>
        </g>
      </g>
      <g
         transform="translate(-2.2420349,1.2450027)"
         id="ytick_3">
        <g
           id="line2d_6">
          <g
             id="g454">
            <use
               style="stroke:#000000;stroke-width:0.8"
               x="25.613991"
               xlink:href="#m84b546f82f"
               y="151.66345"
               id="use452"
               width="100%"
               height="100%" />
          </g>
        </g>
      </g>
      <g
         transform="translate(-2.2420349,1.2450027)"
         id="ytick_4">
        <g
           id="line2d_7">
          <g
             id="g460">
            <use
               style="stroke:#000000;stroke-width:0.8"
               x="25.613991"
               xlink:href="#m84b546f82f"
               y="102.10905"
               id="use458"
               width="100%"
               height="100%" />
          </g>
        </g>
      </g>
      <g
         transform="translate(-2.2420349,1.2450027)"
         id="ytick_5">
        <g
           id="line2d_8">
          <g
             id="g466">
            <use
               style="stroke:#000000;stroke-width:0.8"
               x="25.613991"
               xlink:href="#m84b546f82f"
               y="52.554646"
               id="use464"
               width="100%"
               height="100%" />
          </g>
        </g>
      </g>
      <g
         transform="translate(-2.2420349,1.2450027)"
         id="ytick_6">
        <g
           id="line2d_9">
          <g
             id="g472">
            <use
               style="stroke:#000000;stroke-width:0.8"
               x="25.613991"
               xlink:href="#m84b546f82f"
               y="3.0002401"
               id="use470"
               width="100%"
               height="100%" />
          </g>
        </g>
      </g>
      <g
         transform="translate(3.757965,1.2450027)"
         id="text_5">
        <!-- $E$ -->
        <defs
           id="defs477">
          <path
             d="m 16.890625,72.90625 h 46.09375 L 61.375,64.59375 H 25.09375 l -4.1875,-21.578125 h 34.8125 L 54.109375,34.71875 H 19.28125 L 14.203125,8.296875 H 51.3125 L 49.703125,0 H 2.6875 Z"
             id="DejaVuSans-Oblique-69" />
        </defs>
        <g
           transform="matrix(0,-0.12,-0.12,0,12.118365,130.72625)"
           id="g481">
          <use
             transform="translate(0,0.09375)"
             xlink:href="#DejaVuSans-Oblique-69"
             id="use479"
             x="0"
             y="0"
             width="100%"
             height="100%" />
        </g>
      </g>
      <g
         transform="translate(-2.2420349,1.2450027)"
         id="line2d_10">
        <path
           id="path485"
           style="fill:none;stroke:#000000;stroke-width:1.5;stroke-linecap:square"
           d="m 25.572432,94.171976 5.818085,12.875664 5.707265,12.09382 5.596444,11.34295 5.485623,10.62242 5.374802,9.93165 5.319392,9.36521 5.208572,8.72278 5.097751,8.1086 4.98693,7.52207 4.931519,7.03949 4.8207,6.49779 4.709878,5.98224 4.654468,5.55631 4.543647,5.08309 4.488242,4.69042 4.37741,4.25803 4.32201,3.89741 4.26659,3.54852 4.15578,3.17083 4.10036,2.85239 4.04496,2.54507 3.98954,2.24874 3.93414,1.9632 3.87872,1.68836 3.82331,1.42401 3.7679,1.17005 3.76791,0.93843 3.71249,0.69808 3.71249,0.47322 3.71249,0.24836 3.7125,0.0235 3.71249,-0.20137 3.71249,-0.42623 3.71249,-0.6511 3.7125,-0.87596 3.7679,-1.11895 3.7679,-1.35059 3.82332,-1.6072 3.87872,-1.87419 3.93413,-2.15171 3.98955,-2.43988 4.04495,-2.73889 4.10037,-3.04885 4.15577,-3.36994 4.21119,-3.7023 4.322,-4.10059 4.37742,-4.4638 4.43283,-4.83889 4.54364,-5.29258 4.59906,-5.70013 4.70988,-6.19513 4.76529,-6.63635 4.87611,-7.17418 4.98693,-7.73847 5.04234,-8.23699 5.15316,-8.8466 5.26398,-9.48418 5.31939,-10.04326 5.43022,-10.72866 5.54103,-11.44353 5.65185,-12.18845 3.54626,-7.913744 v 0"
           clip-path="url(#p0b0378e6b6)" />
      </g>
      <g
         transform="translate(-2.2420349,1.2450027)"
         id="line2d_11">
        <path
           id="path488"
           style="fill:none;stroke:#000000;stroke-width:1.5;stroke-linecap:square"
           d="m 25.572432,211.5987 4.543648,4.96859 4.432826,4.52281 4.377417,4.15168 4.266596,3.74571 4.211185,3.40584 4.155775,3.07737 4.100365,2.76018 4.044954,2.45412 3.989544,2.15902 3.934134,1.87474 3.878724,1.60113 3.823313,1.33804 3.767902,1.08532 3.767903,0.85369 3.712493,0.6146 3.712492,0.38973 3.712492,0.16487 3.712493,-0.06 3.712492,-0.28485 3.71249,-0.50972 3.71249,-0.73458 3.7125,-0.95944 3.7679,-1.20369 3.82331,-1.45815 3.82332,-1.69664 3.87872,-1.96492 3.93413,-2.24373 3.98955,-2.5332 4.04495,-2.83351 4.10037,-3.14476 4.15577,-3.46715 4.2666,-3.85275 4.322,-4.20559 4.37742,-4.57016 4.48824,-5.01045 4.54364,-5.40707 4.65447,-5.8882 4.70988,-6.31808 4.8207,-6.84153 4.93152,-7.39112 4.98693,-7.87767 5.09775,-8.47209 5.20857,-9.09417 5.26398,-9.64063 5.37481,-10.31004 5.48562,-11.00861 5.59644,-11.73694 5.65186,-12.371744 5.76267,-13.150917 5.8735,-13.961343 5.98431,-14.803629 6.09514,-15.678374 6.20596,-16.58618 L 268.04806,6.123457 270.55118,-1 v 0"
           clip-path="url(#p0b0378e6b6)" />
      </g>
      <g
         transform="translate(-2.2420349,1.2450027)"
         id="line2d_12">
        <path
           id="path491"
           style="fill:none;stroke:#000000;stroke-width:1.5;stroke-linecap:square"
           d="m 57.700763,-1 6.381852,17.959683 6.316778,17.122202 6.205957,16.187848 6.095137,15.287155 5.984316,14.419523 5.928906,13.709825 5.818081,12.896044 5.70727,12.11382 5.59644,11.36255 5.48563,10.64163 5.3748,9.95048 5.31939,9.38385 5.20857,8.74102 5.09775,8.12646 5.04234,7.62104 4.93152,7.0523 4.8207,6.51032 4.76529,6.06285 4.65447,5.5642 4.54365,5.0908 4.48823,4.69802 4.37742,4.26545 4.32201,3.90474 4.26659,3.55575 4.15578,3.17787 4.10036,2.85934 4.04496,2.55194 3.98954,2.25549 3.93413,1.96988 3.87873,1.69492 3.82331,1.4305 3.7679,1.17644 3.7679,0.94481 3.7125,0.70437 3.71249,0.47952 3.71249,0.25465 3.71249,0.0298 3.7125,-0.19508 3.71249,-0.41994 3.71249,-0.6448 3.71249,-0.86967 3.76791,-1.11257 3.7679,-1.34419 3.82331,-1.60072 3.87873,-1.86762 3.93413,-2.14504 3.98954,-2.43312 4.04496,-2.73203 4.10036,-3.0419 4.15578,-3.3629 4.21118,-3.69516 4.2666,-4.03886 4.37742,-4.45242 4.43282,-4.82737 0.33246,-0.37498 v 0"
           clip-path="url(#p0b0378e6b6)" />
      </g>
      <g
         transform="translate(-2.2420349,1.2450027)"
         id="line2d_13">
        <path
           id="path494"
           style="fill:none;stroke:#000000;stroke-width:1.5;stroke-linecap:square"
           d="m 25.572432,250.77225 3.712493,-0.10992 3.712492,-0.33478 3.712492,-0.55964 3.712493,-0.7845 3.767903,-1.02614 3.767902,-1.25776 3.823313,-1.51302 3.823314,-1.7515 3.878723,-2.02059 3.934134,-2.30019 3.989544,-2.59046 4.044954,-2.89155 4.100365,-3.20361 4.211185,-3.57573 4.266596,-3.91783 4.322006,-4.27153 4.432827,-4.69763 4.488237,-5.08298 4.599055,-5.54941 4.65447,-5.96761 4.76529,-6.47588 4.8207,-6.92814 4.93152,-7.47974 5.04234,-8.05807 5.09775,-8.56829 5.20857,-9.19247 5.31939,-9.84489 5.37481,-10.41633 5.48562,-11.11709 5.59644,-11.84761 5.70727,-12.608484 5.81808,-13.400313 5.8735,-14.088114 5.98431,-14.932791 6.09514,-15.809929 6.20596,-16.720126 L 200.1704,2.213618 201.29519,-1 v 0"
           clip-path="url(#p0b0378e6b6)" />
      </g>
      <g
         transform="translate(-2.2420349,1.2450027)"
         id="line2d_14">
        <path
           id="path497"
           style="fill:none;stroke:#000000;stroke-width:1.5;stroke-linecap:square"
           d="m 126.95676,-1 6.38877,17.978814 6.31678,17.121488 6.20596,16.187147 6.09513,15.286466 5.98432,14.418847 5.92891,13.709155 5.81808,12.895383 5.70727,12.11317 5.59644,11.36192 5.48562,10.64102 5.37481,9.94987 5.31939,9.38324 5.20857,8.74044 5.09775,8.12588 5.04234,7.62047 4.93152,7.05174 4.8207,6.50978 4.76529,6.06232 4.65447,5.56367 4.54364,5.09028 4.48824,4.69752 4.37742,4.26495 4.322,3.90425 4.2666,3.55527 4.15577,3.1774 4.10037,2.85888 4.04495,2.55148 3.98955,2.25504 3.93413,1.96943 3.87872,1.69449 3.82332,1.43007 3.7679,1.17601 3.7679,0.94438 3.7125,0.70396 3.71249,0.47909 3.71249,0.25423 2.38264,0.0447 v 0"
           clip-path="url(#p0b0378e6b6)" />
      </g>
      <g
         transform="translate(-2.2420349,1.2450027)"
         id="line2d_15">
        <path
           id="path500"
           style="fill:none;stroke:#000000;stroke-dasharray:3.7, 1.6;stroke-dashoffset:0"
           d="M 164.12597,250.77226 V 3.00024"
           clip-path="url(#p0b0378e6b6)" />
      </g>
      <g
         transform="translate(-2.2420349,1.2450027)"
         id="line2d_16">
        <path
           id="path503"
           style="fill:none;stroke:#000000;stroke-dasharray:3.7, 1.6;stroke-dashoffset:0"
           d="M 233.38197,250.77226 V 3.00024"
           clip-path="url(#p0b0378e6b6)" />
      </g>
      <g
         transform="translate(-2.2420349,1.2450027)"
         id="line2d_17">
        <path
           id="path506"
           style="fill:none;stroke:#000000;stroke-dasharray:3.7, 1.6;stroke-dashoffset:0"
           d="M 94.869982,250.77226 V 3.00024"
           clip-path="url(#p0b0378e6b6)" />
      </g>
      <g
         transform="translate(-2.2420349,1.2450027)"
         id="line2d_18">
        <path
           id="path509"
           style="fill:none;stroke:#000000;stroke-dasharray:1, 1.65;stroke-dashoffset:0"
           d="M 198.75397,250.77226 V 3.00024"
           clip-path="url(#p0b0378e6b6)" />
      </g>
      <g
         transform="translate(-2.2420349,1.2450027)"
         id="line2d_19">
        <path
           id="path512"
           style="fill:none;stroke:#000000;stroke-dasharray:1, 1.65;stroke-dashoffset:0"
           d="M 164.12597,250.77226 V 3.00024"
           clip-path="url(#p0b0378e6b6)" />
      </g>
      <g
         transform="translate(-2.2420349,1.2450027)"
         id="line2d_20">
        <path
           id="path515"
           style="fill:none;stroke:#000000;stroke-dasharray:1, 1.65;stroke-dashoffset:0"
           d="M 129.49798,250.77226 V 3.00024"
           clip-path="url(#p0b0378e6b6)" />
      </g>
      <g
         transform="translate(-2.2420349,1.2450027)"
         id="patch_3">
        <path
           id="path518"
           style="fill:none;stroke:#000000;stroke-width:0.8;stroke-linecap:square;stroke-linejoin:miter"
           d="M 25.61399,250.77226 V 3.00024" />
      </g>
      <g
         transform="translate(-2.2420349,1.2450027)"
         id="patch_4">
        <path
           id="path521"
           style="fill:none;stroke:#000000;stroke-width:0.8;stroke-linecap:square;stroke-linejoin:miter"
           d="M 302.63796,250.77226 V 3.00024" />
      </g>
      <g
         transform="translate(-2.2420349,1.2450027)"
         id="patch_5">
        <path
           id="path524"
           style="fill:none;stroke:#000000;stroke-width:0.8;stroke-linecap:square;stroke-linejoin:miter"
           d="M 25.61399,250.77226 H 302.63796" />
      </g>
      <g
         transform="translate(-2.2420349,1.2450027)"
         id="patch_6">
        <path
           id="path527"
           style="fill:none;stroke:#000000;stroke-width:0.8;stroke-linecap:square;stroke-linejoin:miter"
           d="M 25.61399,3.00024 H 302.63796" />
      </g>
      <text
         transform="scale(0.94968421,1.0529816)"
         id="text782"
         y="238.07074"
         x="466.19687"
         style="font-style:normal;font-weight:normal;font-size:28.4905px;line-height:1.25;font-family:sans-serif;fill:#000000;fill-opacity:1;stroke:none;stroke-width:0.712263"
         xml:space="preserve"><tspan
           style="font-size:11.3962px;stroke-width:0.712263"
           y="238.07074"
           x="466.19687"
           id="tspan780"
           sodipodi:role="line"><tspan
   id="tspan820"
   style="font-style:italic;font-variant:normal;font-weight:normal;font-stretch:normal;font-family:sans-serif;-inkscape-font-specification:'sans-serif Italic'">n</tspan>=1</tspan></text>
      <path
         id="path786"
         d="m 420.43929,242.25321 h 19.96612"
         style="fill:none;stroke:#000000;stroke-width:0.75px;stroke-linecap:butt;stroke-linejoin:miter;stroke-opacity:1" />
      <path
         style="fill:none;stroke:#000000;stroke-width:0.75px;stroke-linecap:butt;stroke-linejoin:miter;stroke-opacity:1"
         d="m 420.43955,252.00158 h 19.96612"
         id="path786-6" />
      <path
         style="fill:none;stroke:#000000;stroke-width:0.75px;stroke-linecap:butt;stroke-linejoin:miter;stroke-opacity:1"
         d="m 420.43955,164.15416 h 19.96612"
         id="path786-0" />
      <path
         style="fill:none;stroke:#000000;stroke-width:0.75px;stroke-linecap:butt;stroke-linejoin:miter;stroke-opacity:1"
         d="m 381.85843,211.13584 h 19.96612"
         id="path786-62" />
      <path
         id="path786-0-4"
         d="m 420.43955,213.38584 h 19.96612"
         style="fill:none;stroke:#000000;stroke-width:0.75px;stroke-linecap:butt;stroke-linejoin:miter;stroke-opacity:1" />
      <text
         xml:space="preserve"
         style="font-style:normal;font-weight:normal;font-size:28.4905px;line-height:1.25;font-family:sans-serif;fill:#000000;fill-opacity:1;stroke:none;stroke-width:0.712263;stroke-linecap:butt;stroke-linejoin:round"
         x="466.19675"
         y="219.85968"
         id="text782-7"
         transform="scale(0.94968421,1.0529816)"><tspan
           sodipodi:role="line"
           id="tspan780-9"
           x="466.19675"
           y="219.85968"
           style="font-size:11.3962px;stroke-width:0.712263"><tspan
   style="font-style:italic;font-variant:normal;font-weight:normal;font-stretch:normal;font-family:sans-serif;-inkscape-font-specification:'sans-serif Italic';stroke-width:0.712263"
   id="tspan820-3">n</tspan>=2</tspan></text>
      <text
         transform="scale(0.94968421,1.0529816)"
         id="text782-7-9"
         y="185.64011"
         x="466.19687"
         style="font-style:normal;font-weight:normal;font-size:28.4905px;line-height:1.25;font-family:sans-serif;fill:#000000;fill-opacity:1;stroke:none;stroke-width:0.712263;stroke-linecap:butt;stroke-linejoin:round"
         xml:space="preserve"><tspan
           style="font-size:11.3962px;stroke-width:0.712263"
           y="185.64011"
           x="466.19687"
           id="tspan780-9-2"
           sodipodi:role="line"><tspan
   id="tspan820-3-8"
   style="font-style:italic;font-variant:normal;font-weight:normal;font-stretch:normal;font-family:sans-serif;-inkscape-font-specification:'sans-serif Italic';stroke-width:0.712263">n</tspan>=3</tspan></text>
      <path
         id="path786-0-3"
         d="m 420.43955,94.885844 h 19.96612"
         style="fill:none;stroke:#000000;stroke-width:0.75px;stroke-linecap:butt;stroke-linejoin:miter;stroke-opacity:1" />
      <text
         xml:space="preserve"
         style="font-style:normal;font-weight:normal;font-size:28.4905px;line-height:1.25;font-family:sans-serif;fill:#000000;fill-opacity:1;stroke:none;stroke-width:0.712263;stroke-linecap:butt;stroke-linejoin:round"
         x="466.19687"
         y="126.88744"
         id="text782-7-9-0"
         transform="scale(0.94968421,1.0529816)"><tspan
           sodipodi:role="line"
           id="tspan780-9-2-1"
           x="466.19687"
           y="126.88744"
           style="font-size:11.3962px;stroke-width:0.712263"><tspan
   style="font-style:italic;font-variant:normal;font-weight:normal;font-stretch:normal;font-family:sans-serif;-inkscape-font-specification:'sans-serif Italic';stroke-width:0.712263"
   id="tspan820-3-8-7">n</tspan>=4</tspan></text>
      <path
         style="fill:none;stroke:#000000;stroke-width:0.75px;stroke-linecap:butt;stroke-linejoin:miter;stroke-opacity:1"
         d="m 420.43955,7.8858445 h 19.96612"
         id="path786-0-3-8" />
      <text
         transform="scale(0.94968421,1.0529816)"
         id="text782-7-9-0-9"
         y="53.710228"
         x="466.19687"
         style="font-style:normal;font-weight:normal;font-size:28.4905px;line-height:1.25;font-family:sans-serif;fill:#000000;fill-opacity:1;stroke:none;stroke-width:0.712263;stroke-linecap:butt;stroke-linejoin:round"
         xml:space="preserve"><tspan
           style="font-size:11.3962px;stroke-width:0.712263"
           y="53.710228"
           x="466.19687"
           id="tspan780-9-2-1-1"
           sodipodi:role="line"><tspan
   id="tspan820-3-8-7-5"
   style="font-style:italic;font-variant:normal;font-weight:normal;font-stretch:normal;font-family:sans-serif;-inkscape-font-specification:'sans-serif Italic';stroke-width:0.712263">n</tspan>=5</tspan></text>
      <text
         id="text1016"
         y="280.0556"
         x="9.1890354"
         style="font-style:normal;font-weight:normal;font-size:16px;line-height:1.25;font-family:sans-serif;fill:#000000;fill-opacity:1;stroke:none;stroke-width:0.75"
         xml:space="preserve"><tspan
           style="font-style:normal;font-variant:normal;font-weight:bold;font-stretch:normal;font-size:16px;font-family:sans-serif;-inkscape-font-specification:'sans-serif Bold';stroke-width:0.75"
           y="280.0556"
           x="9.1890354"
           id="tspan1014"
           sodipodi:role="line">(a)</tspan></text>
      <text
         xml:space="preserve"
         style="font-style:normal;font-weight:normal;font-size:16px;line-height:1.25;font-family:sans-serif;fill:#000000;fill-opacity:1;stroke:none;stroke-width:0.75;stroke-linecap:butt;stroke-linejoin:round"
         x="295.12375"
         y="280.07123"
         id="text1016-9"><tspan
           sodipodi:role="line"
           id="tspan1014-2"
           x="295.12375"
           y="280.07123"
           style="font-style:normal;font-variant:normal;font-weight:bold;font-stretch:normal;font-size:16px;font-family:sans-serif;-inkscape-font-specification:'sans-serif Bold';stroke-width:0.75">(b)</tspan></text>
    </g>
    <g
       transform="translate(-108.18013,2.7093981)"
       id="axes_2">
      <g
         id="patch_7">
        <path
           id="path531"
           style="fill:#ffffff"
           d="m 327.29844,250.77226 h 92.34132 V 3.00024 h -92.34132 z" />
      </g>
      <g
         id="matplotlib.axis_3">
        <g
           id="xtick_4">
          <g
             id="line2d_21">
            <g
               id="g536">
              <use
                 height="100%"
                 width="100%"
                 id="use534"
                 y="250.77226"
                 xlink:href="#mb9153cd6db"
                 x="419.63977"
                 style="stroke:#000000;stroke-width:0.8" />
            </g>
          </g>
          <g
             id="text_6">
            <!-- $\pi/a$ -->
            <g
               id="g545"
               transform="matrix(0.12,0,0,-0.12,410.27976,266.89038)">
              <use
                 height="100%"
                 width="100%"
                 y="0"
                 x="0"
                 id="use539"
                 xlink:href="#DejaVuSans-Oblique-960"
                 transform="translate(0,0.09375)" />
              <use
                 height="100%"
                 width="100%"
                 y="0"
                 x="0"
                 id="use541"
                 xlink:href="#DejaVuSans-47"
                 transform="translate(60.205078,0.09375)" />
              <use
                 height="100%"
                 width="100%"
                 y="0"
                 x="0"
                 id="use543"
                 xlink:href="#DejaVuSans-Oblique-97"
                 transform="translate(93.896484,0.09375)" />
            </g>
          </g>
        </g>
        <g
           id="xtick_5">
          <g
             id="line2d_22">
            <g
               id="g551">
              <use
                 height="100%"
                 width="100%"
                 id="use549"
                 y="250.77226"
                 xlink:href="#mb9153cd6db"
                 x="373.46909"
                 style="stroke:#000000;stroke-width:0.8" />
            </g>
          </g>
          <g
             id="text_7">
            <!-- $0$ -->
            <g
               id="g556"
               transform="matrix(0.12,0,0,-0.12,369.6291,266.89038)">
              <use
                 height="100%"
                 width="100%"
                 y="0"
                 x="0"
                 id="use554"
                 xlink:href="#DejaVuSans-48"
                 transform="translate(0,0.78125)" />
            </g>
          </g>
        </g>
        <g
           id="xtick_6">
          <g
             id="line2d_23">
            <g
               id="g562">
              <use
                 height="100%"
                 width="100%"
                 id="use560"
                 y="250.77226"
                 xlink:href="#mb9153cd6db"
                 x="327.29843"
                 style="stroke:#000000;stroke-width:0.8" />
            </g>
          </g>
          <g
             id="text_8">
            <!-- $-\pi/a$ -->
            <g
               id="g573"
               transform="matrix(0.12,0,0,-0.12,312.95844,266.89038)">
              <use
                 height="100%"
                 width="100%"
                 y="0"
                 x="0"
                 id="use565"
                 xlink:href="#DejaVuSans-8722"
                 transform="translate(0,0.09375)" />
              <use
                 height="100%"
                 width="100%"
                 y="0"
                 x="0"
                 id="use567"
                 xlink:href="#DejaVuSans-Oblique-960"
                 transform="translate(83.789062,0.09375)" />
              <use
                 height="100%"
                 width="100%"
                 y="0"
                 x="0"
                 id="use569"
                 xlink:href="#DejaVuSans-47"
                 transform="translate(143.99414,0.09375)" />
              <use
                 height="100%"
                 width="100%"
                 y="0"
                 x="0"
                 id="use571"
                 xlink:href="#DejaVuSans-Oblique-97"
                 transform="translate(177.68555,0.09375)" />
            </g>
          </g>
        </g>
        <g
           id="text_9">
          <!-- $k$ -->
          <g
             id="g579"
             transform="matrix(0.12,0,0,-0.12,369.9891,282.50414)">
            <use
               height="100%"
               width="100%"
               y="0"
               x="0"
               id="use577"
               xlink:href="#DejaVuSans-Oblique-107"
               transform="translate(0,0.015625)" />
          </g>
        </g>
      </g>
      <g
         id="matplotlib.axis_4">
        <g
           id="ytick_7">
          <g
             id="line2d_24">
            <g
               id="g585">
              <use
                 height="100%"
                 width="100%"
                 id="use583"
                 y="250.77226"
                 xlink:href="#m84b546f82f"
                 x="327.29843"
                 style="stroke:#000000;stroke-width:0.8" />
            </g>
          </g>
        </g>
        <g
           id="ytick_8">
          <g
             id="line2d_25">
            <g
               id="g591">
              <use
                 height="100%"
                 width="100%"
                 id="use589"
                 y="201.21785"
                 xlink:href="#m84b546f82f"
                 x="327.29843"
                 style="stroke:#000000;stroke-width:0.8" />
            </g>
          </g>
        </g>
        <g
           id="ytick_9">
          <g
             id="line2d_26">
            <g
               id="g597">
              <use
                 height="100%"
                 width="100%"
                 id="use595"
                 y="151.66345"
                 xlink:href="#m84b546f82f"
                 x="327.29843"
                 style="stroke:#000000;stroke-width:0.8" />
            </g>
          </g>
        </g>
        <g
           id="ytick_10">
          <g
             id="line2d_27">
            <g
               id="g603">
              <use
                 height="100%"
                 width="100%"
                 id="use601"
                 y="102.10905"
                 xlink:href="#m84b546f82f"
                 x="327.29843"
                 style="stroke:#000000;stroke-width:0.8" />
            </g>
          </g>
        </g>
        <g
           id="ytick_11">
          <g
             id="line2d_28">
            <g
               id="g609">
              <use
                 height="100%"
                 width="100%"
                 id="use607"
                 y="52.554646"
                 xlink:href="#m84b546f82f"
                 x="327.29843"
                 style="stroke:#000000;stroke-width:0.8" />
            </g>
          </g>
        </g>
        <g
           id="ytick_12">
          <g
             id="line2d_29">
            <g
               id="g615">
              <use
                 height="100%"
                 width="100%"
                 id="use613"
                 y="3.0002401"
                 xlink:href="#m84b546f82f"
                 x="327.29843"
                 style="stroke:#000000;stroke-width:0.8" />
            </g>
          </g>
        </g>
      </g>
      <g
         id="line2d_30">
        <path
           id="path620"
           style="fill:none;stroke:#000000;stroke-width:1.5;stroke-linecap:square"
           d="m 327.25688,240.973 5.09775,2.0427 5.09775,1.80421 5.02387,1.54474 5.02387,1.31312 5.02387,1.08148 4.94999,0.83905 4.94999,0.61417 4.94999,0.38932 4.94999,0.16445 4.94999,-0.0604 4.94999,-0.28527 4.94999,-0.51014 4.94999,-0.735 4.94999,-0.95987 4.94999,-1.18472 5.02387,-1.43233 5.02387,-1.66396 5.09775,-1.92519 2.51194,-1.03635 v 0"
           clip-path="url(#p990aab5f4b)" />
      </g>
      <g
         id="line2d_31">
        <path
           id="path623"
           style="fill:none;stroke:#000000;stroke-width:1.5;stroke-linecap:square"
           d="m 327.25688,241.00821 5.09775,-2.2773 5.17163,-2.55401 5.24551,-2.84122 5.24552,-3.09375 5.31939,-3.39518 5.39327,-3.70746 5.46715,-4.0307 5.54104,-4.36505 5.61491,-4.71068 5.68879,-5.06773 5.76268,-5.43635 5.83655,-5.8167 5.91044,-6.20891 5.98432,-6.61315 6.05819,-7.02955 6.13208,-7.45829 2.95522,-3.71758 v 0"
           clip-path="url(#p990aab5f4b)" />
      </g>
      <g
         id="line2d_32">
        <path
           id="path626"
           style="fill:none;stroke:#000000;stroke-width:1.5;stroke-linecap:square"
           d="m 327.25688,162.6846 6.27984,7.80406 6.20596,7.35669 6.05819,6.84061 5.98432,6.42651 5.91043,6.02457 5.83656,5.63466 5.76267,5.25662 5.6888,4.89031 5.61491,4.53556 5.54103,4.19223 5.46716,3.86018 5.39327,3.53925 5.31939,3.22928 5.31939,2.96961 5.24552,2.67407 5.17163,2.3892 1.62537,0.7002 v 0"
           clip-path="url(#p990aab5f4b)" />
      </g>
      <g
         id="line2d_33">
        <path
           id="path629"
           style="fill:none;stroke:#000000;stroke-width:1.5;stroke-linecap:square"
           d="m 327.25688,162.79025 6.27984,-8.16118 6.35372,-8.62553 6.42759,-9.10279 6.50148,-9.59313 6.64924,-10.21239 6.72312,-10.73839 6.79701,-11.27808 6.87088,-11.83158 7.01864,-12.533345 7.09252,-13.124518 7.16641,-13.730119 7.31416,-14.499207 7.38804,-15.144079 3.84179,-8.072885 v 0"
           clip-path="url(#p990aab5f4b)" />
      </g>
      <g
         id="line2d_34">
        <path
           id="path632"
           style="fill:none;stroke:#000000;stroke-width:1.5;stroke-linecap:square"
           d="m 327.25688,6.143027 7.5358,15.70754 7.46193,15.040025 7.31416,14.246293 7.24029,13.618852 7.1664,13.006138 7.01864,12.281131 6.94477,11.706884 6.87088,11.14678 6.72312,10.48768 6.64924,9.96444 6.57536,9.45471 6.50148,8.95836 6.35371,8.37998 2.06866,2.64841 v 0"
           clip-path="url(#p990aab5f4b)" />
      </g>
      <g
         id="line2d_35">
        <path
           id="path635"
           style="fill:none;stroke:#000000;stroke-dasharray:3.7, 1.6;stroke-dashoffset:0"
           d="M 373.4691,250.77226 V 3.00024"
           clip-path="url(#p990aab5f4b)" />
      </g>
      <g
         id="patch_8">
        <path
           id="path638"
           style="fill:none;stroke:#000000;stroke-width:0.8;stroke-linecap:square;stroke-linejoin:miter"
           d="M 327.29844,250.77226 V 3.00024" />
      </g>
      <g
         id="patch_9">
        <path
           id="path641"
           style="fill:none;stroke:#000000;stroke-width:0.8;stroke-linecap:square;stroke-linejoin:miter"
           d="M 419.63976,250.77226 V 3.00024" />
      </g>
      <g
         id="patch_10">
        <path
           id="path644"
           style="fill:none;stroke:#000000;stroke-width:0.8;stroke-linecap:square;stroke-linejoin:miter"
           d="m 327.29844,250.77226 h 92.34132" />
      </g>
      <g
         id="patch_11">
        <path
           id="path647"
           style="fill:none;stroke:#000000;stroke-width:0.8;stroke-linecap:square;stroke-linejoin:miter"
           d="m 327.29844,3.00024 h 92.34132" />
      </g>
    </g>
  </g>
  <defs
     id="defs658">
    <clipPath
       id="p0b0378e6b6">
      <rect
         id="rect652"
         y="3.0002401"
         x="25.613991"
         width="277.02396"
         height="247.77202" />
    </clipPath>
    <clipPath
       id="p990aab5f4b">
      <rect
         id="rect655"
         y="3.0002401"
         x="327.29843"
         width="92.341324"
         height="247.77202" />
    </clipPath>
  </defs>
</svg>
